<svg version="1.1" id="Capa_1" xmlns="http://www.w3.org/2000/svg" xmlns:xlink="http://www.w3.org/1999/xlink" x="0px" y="0px"
	 width="540.016px" height="540.016px" viewBox="0 0 540.016 540.016" style="enable-background:new 0 0 540.016 540.016;"
	 fill="#D9D7F1"
	 xml:space="preserve">
<g>
	<g>
		<path d="M270.005,540.016c98.459,0,178.832-63.342,201.158-151.219c2.124-8.365,3.69-16.971,4.73-25.746
			c0.937-7.902,1.469-15.938,1.469-24.119c0-2.344-0.104-4.793-0.177-7.217c-0.71-22.424-4.651-48.23-11.218-75.275
			c-4.027-16.579-9.016-33.58-14.866-50.545c-3.929-11.401-8.243-22.76-12.883-33.953c-6.272-15.11-13.114-29.896-20.495-43.942
			c-11.91-22.662-30.001-52.595-53.184-77.821c-5.568-6.06-11.432-11.843-17.576-17.191c-8.194-7.136-16.885-13.47-26.041-18.647
			c-3.874-2.191-7.827-4.174-11.866-5.918C296.749,3.114,283.714,0,270.005,0c-24.125,0-46.182,9.528-65.766,23.972
			c-3.562,2.625-7.044,5.422-10.44,8.348c-11.047,9.522-21.188,20.478-30.361,31.897c-3.807,4.743-7.455,9.56-10.918,14.4
			c-4.412,6.163-8.537,12.338-12.368,18.396c-3.415,5.41-6.598,10.716-9.535,15.833c-3.036,5.293-5.826,10.392-8.329,15.152
			c-0.318,0.612-0.625,1.249-0.943,1.86c-3.837,7.388-7.546,14.958-11.089,22.675c-10.386,22.583-19.449,46.335-26.806,69.909
			c-1.579,5.067-3.084,10.122-4.498,15.153c-7.766,27.576-13.054,54.468-15.208,78.421c-0.441,4.865-0.704,9.553-0.875,14.156
			c-0.11,2.961-0.214,5.912-0.214,8.758c0,7.551,0.44,14.986,1.236,22.301c3.011,27.639,11.585,53.422,24.633,76.348
			C123.572,499.152,190.947,540.016,270.005,540.016z M263.885,506.65c-12.24,0-12.24-24.48,0-24.48
			C282.245,482.17,282.245,506.65,263.885,506.65z M451.995,408.166c-23.666,21.236-51.487,37.412-82.607,47.768
			c-7.51,2.496-10.704-9.32-3.256-11.807c36.622-12.184,68.446-33.035,93.771-61.041
			C457.853,391.709,455.196,400.076,451.995,408.166z M460.386,289.414c3.054,17.797,4.73,34.578,4.73,49.518
			c0,5.27-0.269,10.459-0.685,15.605c-33.893,51.996-92.009,85.459-159.745,85.797c-19.736,0.098-19.725-30.502,0-30.602
			C380.238,409.348,442.711,360.051,460.386,289.414z M429.786,183.618c4.357,10.887,8.365,21.903,12.02,32.926
			c-65.38,70.239-169.818,88.567-258.038,40.856c-17.363-9.388-1.91-35.808,15.447-26.42
			C279.54,274.42,375.226,253.625,429.786,183.618z M380.165,317.945c-12.24,0-12.24-24.48,0-24.48
			C398.524,293.465,398.524,317.945,380.165,317.945z M337.325,338.35c-12.24,0-12.24-24.48,0-24.48
			C355.685,313.869,355.685,338.35,337.325,338.35z M282.245,344.469c-12.24,0-12.24-24.479,0-24.479
			C300.604,319.99,300.604,344.469,282.245,344.469z M337.325,187.388c18.359,0,18.359,24.48,0,24.48
			C325.085,211.868,325.085,187.388,337.325,187.388z M338.849,42.007c6.102,5.301,11.922,11.09,17.454,17.173
			c-11.64,10.992-26.169,18.733-42.222,21.849c-15.422,2.993-21.995-20.6-6.506-23.604
			C319.656,55.086,330.263,49.847,338.849,42.007z M337.325,126.188c-18.36,0-18.36-24.479,0-24.479
			C349.564,101.708,349.564,126.188,337.325,126.188z M218.536,28.867c2.833,0.79,5.698,1.494,8.599,2.069
			c13.066,2.576,66.482,8.923,79.322-10.331c3.433,1.566,6.812,3.323,10.128,5.264c-8.488,12.803-27.203,18.439-44.119,19.871
			c-23.035,1.946-44.902-1.242-65.686-8.396C210.604,34.302,214.521,31.463,218.536,28.867z M263.885,88.445
			c-18.36,0-18.36-24.479,0-24.479C276.125,63.966,276.125,88.445,263.885,88.445z M172.697,72.117
			c34.762,27.718,76.616,40.087,121.042,36.206c11.358-0.991,11.267,17.375,0,18.36c-48.33,4.223-94.064-10.092-131.88-40.159
			C165.298,81.677,168.915,76.854,172.697,72.117z M149.827,104.591c58.391,43.103,133.618,55.747,203.673,33.904
			c11.334-3.531,16.145,14.192,4.884,17.705c-74.977,23.379-155.185,9.438-217.927-35.899
			C143.327,115.239,146.467,109.964,149.827,104.591z M131.007,137.877c44.958,35.398,99.414,53.066,157.394,51.261
			c15.796-0.489,15.747,23.991,0,24.48c-61.622,1.916-119.848-16.836-168.263-53.274
			C123.602,152.693,127.25,145.209,131.007,137.877z M92.421,235.044c32.926,40.448,88.379,59.144,138.851,69.78
			c7.717,1.629,5.104,13.586-2.632,11.959c-50.833-10.711-105.478-29.639-140.166-67.62
			C89.716,244.476,91.032,239.775,92.421,235.044z M75.456,323.82c51.647,33.189,110.797,55.803,172.241,60.656
			c70.209,5.545,150.479-1.029,181.312-75.008c2.992-7.172,14.841-4.033,11.806,3.256c-28.336,67.988-94.077,87.191-162.921,85.547
			c-72.589-1.732-141.8-22.602-202.976-60.355C74.936,333.387,75.144,328.656,75.456,323.82z M188.768,456.605
			c10.551,1.77,10.875,13.195,5.171,19.549c11.297,2.631,22.724,4.846,34.223,6.965c8.335,1.535,4.792,14.473-3.495,12.943
			c-32.767-6.035-68.52-11.824-97.596-29.584c-1.738-1.059-3.341-2.143-5-3.213c-19.352-21.646-33.642-47.699-41.157-76.66
			C107.721,422.064,142.635,448.877,188.768,456.605z"/>
	</g>
</g>
<g>
</g>
<g>
</g>
<g>
</g>
<g>
</g>
<g>
</g>
<g>
</g>
<g>
</g>
<g>
</g>
<g>
</g>
<g>
</g>
<g>
</g>
<g>
</g>
<g>
</g>
<g>
</g>
<g>
</g>
</svg>
