<?xml version="1.0" encoding="iso-8859-1"?>
<!-- Generator: Adobe Illustrator 16.0.0, SVG Export Plug-In . SVG Version: 6.00 Build 0)  -->
<!DOCTYPE svg PUBLIC "-//W3C//DTD SVG 1.1//EN" "http://www.w3.org/Graphics/SVG/1.1/DTD/svg11.dtd">
<svg version="1.1" id="Capa_1" xmlns="http://www.w3.org/2000/svg" xmlns:xlink="http://www.w3.org/1999/xlink" x="0px" y="0px"
	 width="552.055px" height="552.055px" viewBox="0 0 552.055 552.055" style="enable-background:new 0 0 552.055 552.055;"
	 fill="#FFFDDE"
	 xml:space="preserve">
<g>
	<g>
		<path d="M276.028,0c-71.531,0-125.283,81.983-150.956,130.846c-36.475,69.431-60.986,156.097-60.986,215.669
			c0,115.258,93.098,205.54,211.942,205.54c118.845,0,211.941-90.282,211.941-205.54c0-59.572-24.51-146.244-60.984-215.669
			C401.311,81.983,347.559,0,276.028,0z M189.442,521.351c-35.435-30.509-90.692-90.992-112.877-184.543
			c0.655-15.379,2.797-32.307,6.254-50.116c25.465,156.434,183.086,231.158,189.61,253.044c0.049,0.165,0.128,0.722,0.159,0.881
			c-0.031-0.159-0.11-0.526-0.159-0.691c-29.768-0.49-57.76-7.044-82.754-18.379C189.595,521.473,189.521,521.418,189.442,521.351z
			 M271.873,547.514c-0.037,0-0.074,0-0.11,0c0.061-0.099,0.098-0.215,0.147-0.324c0.061-0.013,0.104-0.019,0.171-0.037
			C272.013,547.269,271.946,547.397,271.873,547.514z M340.447,529.852c-0.117,0.098-0.27,0.201-0.387,0.306
			c-15.869,5.043-32.656,8.531-50.146,9.645c-3.732,2.259-7.688,5.509-11.225,5.509c-2.41,0-4.614,1.12-6.413,1.604
			c0.049-0.135,0.092-0.27,0.135-0.417c1.163-0.306,2.521-0.716,3.96-1.181h2.312c3.537,0,7.49-3.348,11.225-5.606
			c-4.59,0.294-9.205,0.11-13.887,0.11c4.676,0,9.297-0.202,13.887-0.495c14.656-8.855,25.668-26.145-7.521-57.89
			c-47.65-45.581-165.356-103.434-190.938-231.317c8.507-31.059,20.251-63.134,34.315-93.061
			c2.075,60.294,24.351,130.717,85.576,187.18C313.824,438.749,378.141,498.314,340.447,529.852z M429.047,471.98
			c-11.617,13.329-25.068,25.08-40.062,34.878c18.439-19.425,24.836-48.654-17.166-94.016
			c-61.25-66.151-193.539-154.346-213.142-257.242c-3.403-17.852-4.877-34.798-4.596-50.662
			c16.836-26.757,33.299-46.047,48.679-59.786c-8.898,29.774-5.08,67.094,23.287,108C289.094,244.09,460.037,363.828,429.047,471.98
			z M475.73,346.521c0,24.792-4.635,48.329-13.055,69.934c7.24-59.891-33.104-116.642-122.713-217.982
			c-71.389-80.741-105-138.465-98.868-178.527c9.309-3.99,17.724-6.083,24.982-7.025c5.814,34.192,35.128,88.746,111.861,159.824
			c47.088,43.617,76.115,83.024,92.217,119.034C473.734,311.496,475.73,330.101,475.73,346.521z M369.363,101.702
			c-38.812-41.537-61.689-66.775-74.389-87.125c30.307,7.271,75.258,34.578,121.17,121.965c6.531,12.43,12.656,25.417,18.324,38.691
			C415.82,152.07,393.672,127.718,369.363,101.702z"/>
	</g>
</g>
<g>
</g>
<g>
</g>
<g>
</g>
<g>
</g>
<g>
</g>
<g>
</g>
<g>
</g>
<g>
</g>
<g>
</g>
<g>
</g>
<g>
</g>
<g>
</g>
<g>
</g>
<g>
</g>
<g>
</g>
</svg>
