<?xml version="1.0" encoding="iso-8859-1"?>
<!-- Generator: Adobe Illustrator 16.0.0, SVG Export Plug-In . SVG Version: 6.00 Build 0)  -->
<!DOCTYPE svg PUBLIC "-//W3C//DTD SVG 1.1//EN" "http://www.w3.org/Graphics/SVG/1.1/DTD/svg11.dtd">
<svg version="1.1" id="Capa_1" xmlns="http://www.w3.org/2000/svg" xmlns:xlink="http://www.w3.org/1999/xlink" x="0px" y="0px"
	 width="547.109px" height="547.109px" viewBox="0 0 547.109 547.109" style="enable-background:new 0 0 547.109 547.109;"
	 fill="#FFCBCB"
	 xml:space="preserve">
<g>
	<g>
		<path d="M59.08,213.753c0.417-1.322,0.857-2.644,1.279-3.966c-0.575,0.435-1.12,0.838-1.708,1.279L59.08,213.753z"/>
		<path d="M482.187,284.17c-2.117-11.212-4.756-22.754-7.846-34.474c-1.469-5.563-3.043-11.163-4.713-16.781
			c-3.586-12.075-7.596-24.223-12.045-36.292c-1.604-4.352-3.25-8.697-4.951-13.011c-7.344-18.586-15.611-36.787-24.613-53.936
			c-12.957-24.658-33.146-57.81-59.188-84.432c-14.932-15.263-31.793-28.348-50.33-36.469C305.874,3.25,292.485,0,278.39,0
			c-0.82,0-1.621,0.067-2.436,0.086c-3.219,0.085-6.414,0.312-9.559,0.722c-14.033,1.818-27.302,6.745-39.737,13.807
			c-8.391,4.767-16.396,10.49-23.99,16.903c-11.273,9.517-21.634,20.514-31.01,32.044c-4.07,5-7.956,10.092-11.64,15.208
			c-12.871,17.858-23.391,35.943-31.249,50.9c-9.872,18.789-18.812,38.862-26.659,59.297c-2.833,7.375-5.551,14.786-8.072,22.222
			c-3.862,11.377-7.313,22.754-10.385,34.015c-1.457,5.343-2.815,10.648-4.083,15.918c-2.179,9.082-4.063,18.005-5.636,26.732
			c-3.14,17.424-5.006,33.941-5.435,48.96c-0.061,2.203-0.166,4.449-0.166,6.585c0,5.397,0.27,10.716,0.673,15.991
			c0.851,11.071,2.558,21.873,5.098,32.338c1.909,7.883,4.241,15.588,7.038,23.061c5.361,14.314,12.344,27.81,20.679,40.337
			c9.021,13.562,19.67,25.955,31.702,36.965c9.731,8.904,20.355,16.885,31.763,23.838c32.46,19.779,71.151,31.181,113.109,31.181
			c58.342,0,110.398-21.971,148.111-58.011c4.871-4.658,9.51-9.542,13.885-14.651c7.154-8.354,13.6-17.302,19.297-26.751
			c3.881-6.432,7.393-13.103,10.539-19.981c4.223-9.235,7.766-18.844,10.568-28.782c3.367-11.94,5.674-24.346,6.807-37.137
			c0.539-6.059,0.855-12.185,0.855-18.402c0-2.081-0.098-4.272-0.158-6.42C487.841,320.859,485.747,303.02,482.187,284.17z
			 M331.077,29.425c19.828,34.04,39.621,76.06,23.648,82.333c-20.723,8.14-56.598-52.075-74.469-99.45
			C298.444,12.729,315.472,19.248,331.077,29.425z M209.999,41.212c15.41-13.109,32.503-23.115,50.986-27.087
			c-23.52,56.487-55.98,116.972-78.654,108.875C167.82,117.816,188.567,76.818,209.999,41.212z M139.601,135.368
			c4.541-8.642,10.006-18.391,16.304-28.519c-5.544,24.694-10.147,56.512,9.56,59.248c33.733,4.682,79.64-112.431,105.876-111.494
			c26.237,0.937,50.601,133.043,104.933,118.049c48.869-13.476-9.057-88.293-10.33-112.779c22.168,24.4,39.676,53.501,51.236,75.49
			c8.256,15.71,15.846,32.326,22.676,49.284c-6.328,2.424-12.223,7.876-17.668,17.05c-17.805,29.982-38.416,41.225-82.449,3.746
			c-44.039-37.479-66.525-45.906-110.558-8.434c-44.04,37.479-59.964,47.785-92.755,13.122c-8.5-8.984-15.79-14.707-22.473-17.944
			C121.522,172.627,130.127,153.398,139.601,135.368z M106.498,212.542c20.055,6.604,27.308,33.195,68.342,33.195
			c46.842,0,63.709-44.033,103.997-44.97c40.287-0.937,69.334,45.906,109.621,44.033c36.695-1.708,43.869-39.064,56.182-47.858
			c4.34,11.512,8.316,23.103,11.861,34.646c-21.885,1.285-35.961,20.637-67.105,31.016c-44.971,14.988-67.455-19.676-103.062-18.739
			c-51.646,1.358-83.384,38.416-126.487,16.867c-32.895-14.241-49.547-19.413-62.7-18.611
			C99.949,232.309,103.089,222.419,106.498,212.542z M92.789,258.325c29.119-3.642,49.97,10.545,78.299,18.329
			c37.479,10.312,87.13-11.242,116.177-14.051c29.045-2.809,52.467,18.74,92.754,13.115c40.289-5.618,55.281-20.612,79.641-25.293
			c0.746-0.141,1.432-0.22,2.146-0.331c3.178,11.799,5.906,23.427,8.08,34.7c-16.758,2.54-33.881,10.839-58.955,13.409
			c-36.543,3.745-71.207-6.561-118.049-8.434c-46.848-1.872-67.46,19.676-108.691,15.925c-32.093-2.92-66.445-17.693-97.773-18.379
			C88.193,277.872,90.304,268.185,92.789,258.325z M427.706,470.193c-5.539,6.132-11.475,11.903-17.785,17.283
			c-34.719,29.603-80.57,47.387-131.531,47.387c-34.474,0-66.616-8.134-94.554-22.552c-7.962-4.106-15.569-8.752-22.803-13.838
			c-13.225-9.302-25.184-20.152-35.569-32.332c4.761,1.512,9.915,2.761,15.655,3.52c35.606,4.688,58.091-2.815,91.818-1.873
			c33.727,0.937,43.097,12.179,85.257,12.179c42.166,0,72.148-29.981,105.883-34.67c8.402-1.169,16.047-1.052,22.797-0.226
			C441.188,453.981,434.774,462.372,427.706,470.193z M457.112,426.84c-4.48-0.172-9.805-0.282-16.188-0.282
			c-32.797,0-82.449,27.173-114.303,35.606c-31.855,8.434-52.467-14.052-80.576-15.924c-28.109-1.879-52.473,11.242-94.634,5.618
			c-23.237-3.097-38.495-14.726-51.598-24.707c-4.718-9.608-8.58-19.7-11.628-30.165c4.504,2.038,9.621,4.639,15.441,8.023
			c29.039,16.866,62.773,19.676,103.061,18.739c40.288-0.937,59.027-1.873,103.061,3.745c44.039,5.618,82.449-22.485,126.488-23.421
			c13.023-0.275,23.115-1.218,30.961-2.394C464.427,410.364,461.054,418.767,457.112,426.84z M474.989,364.917
			c-14.223,3.434-34.211,7.95-52.803,11.053c-33.729,5.618-92.756,3.746-133.043,1.873c-40.289-1.873-83.386-2.81-129.298,0.937
			c-36.182,2.949-56.653-10.931-78.379-16.965c-0.575-6.059-0.894-12.197-0.894-18.421c0-1.861,0.092-3.819,0.141-5.729
			c6.683,0.575,14.841,1.426,24.792,2.699c36.536,4.688,59.021,10.306,97.437,3.745c38.415-6.555,77.767-0.937,131.169,1.879
			c53.41,2.809,90.883-5.624,116.182-8.434c9.965-1.107,18.734-1.334,25.742-1.212c0.072,2.368,0.178,4.768,0.178,7.051
			C476.206,350.688,475.772,357.861,474.989,364.917z"/>
	</g>
</g>
<g>
</g>
<g>
</g>
<g>
</g>
<g>
</g>
<g>
</g>
<g>
</g>
<g>
</g>
<g>
</g>
<g>
</g>
<g>
</g>
<g>
</g>
<g>
</g>
<g>
</g>
<g>
</g>
<g>
</g>
</svg>
