<?xml version="1.0" encoding="iso-8859-1"?>
<!-- Generator: Adobe Illustrator 16.0.0, SVG Export Plug-In . SVG Version: 6.00 Build 0)  -->
<!DOCTYPE svg PUBLIC "-//W3C//DTD SVG 1.1//EN" "http://www.w3.org/Graphics/SVG/1.1/DTD/svg11.dtd">
<svg version="1.1" id="Capa_1" xmlns="http://www.w3.org/2000/svg" xmlns:xlink="http://www.w3.org/1999/xlink" x="0px" y="0px"
	 width="540.004px" height="540.004px" viewBox="0 0 540.004 540.004" style="enable-background:new 0 0 540.004 540.004;"
	 fill="#D3DEDC"
	 xml:space="preserve">
<g>
	<g>
		<path d="M270.008,0c-70,0-122.596,80.196-147.712,128C86.623,195.895,62.65,280.651,62.65,338.919
			c0,112.762,91.078,201.085,207.352,201.085s207.352-88.33,207.352-201.085c0-58.269-23.971-143.024-59.645-210.919
			C392.604,80.19,340.01,0,270.008,0z M316.93,26.071c9.854,5.795,19.168,13.09,27.871,21.328
			c2.877,10.416,4.363,22.883,2.723,37.093c-13.041-14.058-23.855-25.967-32.857-36.402C316.404,40.294,317.205,32.95,316.93,26.071
			z M331.875,131.084c-2.84,5.159-6.053,10.435-9.805,15.845c-4.18,6.028-8.904,12.209-13.977,18.501
			c-11.947-14.48-22.449-28.122-31.488-40.949c8.514-12.228,15.648-23.653,21.414-34.339
			C307.285,102.871,318.455,116.525,331.875,131.084z M270.92,45.025c-4.877,10.355-11.646,22.264-20.985,35.734
			c-5.582-11.218-9.639-21.659-12.068-31.304c10.073-11.744,17.827-21.72,23.678-30.784
			C263.411,26.518,266.458,35.318,270.92,45.025z M122.957,154.297c3.28-6.995,6.652-13.905,10.177-20.612
			c4.811-9.155,10.686-19.572,17.491-30.355c12.699-20.123,28.709-41.518,47.412-58.532c11.597-10.551,24.211-19.425,37.73-25.221
			c7.576-3.25,15.428-5.508,23.537-6.591c-5.422,8.874-12.852,18.685-22.772,30.423C225.92,55.967,212.37,70.814,195.418,89.04
			c-3.115,3.354-6.255,6.72-9.615,10.312c-11.652,12.473-22.767,24.529-33.268,36.286c-10.233,11.444-19.805,22.57-28.624,33.421
			c-5.686,6.995-11.089,13.893-16.071,20.667C112.486,177.707,117.547,165.852,122.957,154.297z M209.365,130.301
			c-10.294,11.01-21.953,22.663-35.276,35.006c-4.131,3.825-8.097,7.632-11.989,11.426c-2.987-8.109-5.379-16.31-6.965-24.621
			c-0.648-3.415-1.218-6.793-1.726-10.141c11.279-12.681,23.348-25.753,35.973-39.272c2.479-2.65,4.755-5.098,7.105-7.62
			C198.827,106.329,203.019,118.11,209.365,130.301z M101.237,207.67c6.873-10.343,14.707-20.924,23.409-31.787
			c1.316,11.138,3.366,22.503,6.261,33.966c-15.123,17.638-27.558,35.006-37.344,52.197c-1.518-5.41-2.919-10.906-4.076-16.591
			C92.883,232.958,96.818,220.302,101.237,207.67z M81.102,281.232c0.233,1.396,0.49,2.778,0.747,4.161
			c-0.924,2.13-1.806,4.26-2.65,6.39C79.774,288.307,80.417,284.782,81.102,281.232z M95.919,425.321
			c-13.421-25.765-21.022-55.049-21.022-86.402c0-2.588,0.104-5.293,0.196-7.986c0.159-4.333,0.404-8.758,0.808-13.329
			c1.921-7.675,4.431-15.515,7.595-23.525c3.274-8.299,7.265-16.781,12.014-25.465c9.229-16.885,21.371-34.511,36.916-52.969
			c9.266-10.998,19.78-22.301,31.579-33.905c4.314-4.241,8.739-8.513,13.409-12.84c12.785-11.842,24.162-23.194,34.376-34.082
			c16.622-17.724,29.994-34.149,40.6-49.211c8.911-12.656,15.888-24.345,21.199-35.019c6.947-13.966,11.09-26.2,13.037-36.585
			c0.74,0.153,1.475,0.324,2.209,0.496c7.932,1.867,15.594,4.859,22.975,8.727c0.545,6.304,0.189,13.011-1.158,20.19
			c-2.373,12.638-7.686,26.671-15.861,42.186c-5.674,10.771-12.768,22.283-21.201,34.529c-10.458,15.19-23.035,31.548-37.692,49.131
			c-6.689,8.023-13.758,16.273-21.31,24.816c-9.584,10.839-18.58,21.151-27.02,31.004c-12.901,15.08-24.431,29.064-34.658,42.204
			c-14.431,18.543-26.206,35.386-35.343,51.126c-6.279,10.814-11.322,21.114-15.117,31.09c-4.896,12.852-7.723,25.184-8.525,37.405
			c0.698,1.585,1.426,3.109,2.142,4.67c-0.71-1.561-2.454-3.085-3.152-4.67C92.069,399.666,92.406,412.311,95.919,425.321z
			 M270.235,208.178c-7.32,7.791-14.872,15.704-22.559,23.746c-9.89,10.349-19.963,20.9-29.902,31.598
			c-9.859-11.157-19.063-22.589-27.295-34.284c8.617-10.098,17.858-20.704,27.766-31.91c7.405-8.378,14.26-16.396,20.796-24.217
			C248.454,184.457,259.017,196.17,270.235,208.178z M179.23,307.358c-13.152,16.12-25.092,32.448-34.823,48.862
			c-8.574-10.232-16.628-21.218-23.905-33.023c8.868-15.569,20.49-32.405,35.019-51.206
			C162.217,284.023,170.038,295.878,179.23,307.358z M103.116,433.981c-0.042,1.102-0.134,2.374-0.293,3.678
			c-0.251-0.403-0.483-0.82-0.722-1.229c0.227-0.863,0.483-1.702,0.514-2.448l0.52-0.453L103.116,433.981z M118.82,433.394
			c-7.136-11.162-13.99-23.256-20.27-36.371c-0.385-13.488,1.86-27.05,6.854-41.401c6.475,12.949,13.758,25.129,21.622,36.512
			C122.008,405.921,119.12,419.703,118.82,433.394z M132.253,473.816c-1.359-2.803-2.705-5.661-4.003-8.752
			c-2.576-7.906-3.904-15.894-4.357-23.917c-0.82-14.584,1.622-29.333,6.641-44.144c4.149-12.264,10.006-24.565,17.197-36.854
			c9.596-16.401,21.463-32.784,34.67-49.003c12.062-14.81,25.202-29.485,38.629-43.935c17.62-18.96,35.716-37.522,52.558-55.441
			c13.752-14.639,26.617-28.837,37.693-42.503c5.387-6.646,10.398-13.176,14.811-19.547c3.488-5.031,6.543-9.994,9.291-14.902
			c8.977-16.016,14.168-31.359,16.371-45.771c1.908-12.509,1.59-24.309-0.49-35.233c18.201,18.794,33.477,41.175,45.146,61.047
			c-0.27,6.75-0.869,13.684-1.781,20.777c-0.691,5.404-1.535,10.887-2.6,16.475c-1.91,10.025-4.951,19.896-8.869,29.627
			c-5.961,14.798-13.996,29.26-23.561,43.342c-9.811,14.443-21.188,28.495-33.465,42.13c-16.445,18.262-34.504,35.765-52.559,52.466
			c-14.664,13.568-29.321,26.61-43.115,39.07c-15.955,14.413-30.704,28.048-42.993,40.876c-1.377,1.438-2.76,2.876-4.076,4.296
			c-10.184,10.998-17.405,21.01-22.313,30.165c-10.967,20.436-10.172,36.519-3.574,49.278c4.908,9.499,12.987,17.161,21.806,23.422
			C161.868,498.101,146.017,486.986,132.253,473.816z M410.885,211.158c-4.32,16.451-10.697,34.027-19.945,51.879
			c-8.494-10.771-17.883-22.136-28.121-34.18c9.676-14.101,17.895-28.593,24.082-43.416
			C395.633,194.188,403.607,202.762,410.885,211.158z M361.582,307.31c-7.252,8.776-15.287,17.442-24.42,25.863
			c-8.322,7.675-16.363,15.092-24.111,22.276c-11.58-10.435-23.686-21.248-35.857-32.441c17.809-16.5,35.766-33.967,52.24-52.271
			C340.553,282.787,351.398,295.002,361.582,307.31z M270.057,396.068c-14.626,14.247-27.369,27.338-37.895,39.388
			c-12.98-9.89-26.94-20.661-40.955-32.644c12.222-12.742,27.014-26.402,42.865-40.717
			C246.96,374.055,259.017,385.383,270.057,396.068z M197.719,512.317c-15.374-8.28-36.218-21.695-39.676-42.479
			c-1.604-9.646,0.728-20.361,6.677-31.972c13.391,13.936,26.953,26.194,39.658,36.892c-4.694,9.811-6.683,18.696-5.575,26.757
			c0.802,5.845,3.244,11.139,7.258,15.869C203.716,515.714,200.932,514.05,197.719,512.317z M211.446,519.515
			c-1.505-0.447-2.98-0.991-4.467-1.469c-0.031-0.024-0.049-0.043-0.074-0.067c1.518,0.483,3.011,1.004,4.547,1.456
			c3.158,2.821,7.001,5.575,11.634,7.938C218.447,525.004,214.604,522.33,211.446,519.515z M280.297,532.085L280.297,532.085
			c0-0.006,0-0.019,0-0.024C280.297,532.061,280.297,532.072,280.297,532.085z M277.188,472.018
			c9.988-9.156,22.57-18.808,37.094-29.86c9.76,11.457,17.381,21.897,22.404,31.329c-10.594,8.825-20.49,16.53-28.99,23.146
			c-3.875,3.011-7.229,5.643-10.336,8.115C296.594,496.185,290.963,485.444,277.188,472.018z M290.621,534.869
			c-0.025,0-0.043,0.007-0.068,0.007l0.6-0.459l0.086,0.012L290.621,534.869z M420.027,460.909
			c-8.072,9.339-17.074,17.877-26.885,25.508c9.547-10.3,19.443-22.136,29.094-35.637
			C421.693,454.165,420.959,457.543,420.027,460.909z M452.85,406.031c0.293-2.717,0.49-5.429,0.582-8.134
			c2.189-4.602,4.295-9.351,6.334-14.192C457.91,391.35,455.609,398.804,452.85,406.031z M465.119,338.919
			c0,6.695-0.348,13.299-1.016,19.799c-3.285,9.822-6.916,19.235-10.844,28.194c-8.881,20.258-19.188,38.312-29.977,54.235
			c-11.041,16.292-22.57,30.331-33.617,42.216c-5.703,6.133-11.279,11.732-16.572,16.714c-12.197,7.222-25.338,13.146-39.205,17.65
			c-0.049,0.043-0.115,0.086-0.158,0.129c-15.594,5.055-32.113,8.243-49.328,9.406c-1.291,0.813-2.607,1.529-3.941,2.215
			c1.334-0.686,2.65-1.438,3.941-2.252c-1.127,0.073-2.246,0.184-3.379,0.239c1.568-3.831,7.289-9.156,15.955-16.163
			c10.576-8.544,25.367-19.548,41.947-33.287c14.926-12.374,31.248-26.958,47.166-43.936c10.564-11.267,20.9-23.642,30.559-37.074
			c10.434-14.518,20.018-30.319,28.09-47.498c7.166-15.251,13.078-31.609,17.375-49.063
			C464.043,314.134,465.119,327.114,465.119,338.919z M363.025,403.131c13.264-11.592,26.525-24.358,38.941-38.593
			c4.988,8.923,9.242,17.846,12.639,26.75c-9.762,13.911-20.324,26.635-31.107,38.25c-4.768-7.907-11.199-16.414-19.725-25.624
			C363.527,403.657,363.271,403.394,363.025,403.131z M459.447,284.176c0.189,1.041,0.379,2.075,0.562,3.115
			c-3.93,20.019-10.08,38.63-17.834,55.876c-2.777-6.512-6.059-13.177-9.871-20.043c8.91-14.829,16.586-30.949,22.49-48.544
			C456.441,277.805,458.008,281.006,459.447,284.176z M423.332,168.19c0.307,0.704,0.625,1.401,0.924,2.105
			c12.639,29.395,22.902,60.251,29.994,89.615c-0.795,2.95-1.688,5.826-2.582,8.703c-5.643,18.084-13.158,34.639-22.057,49.804
			c-8.922,15.202-19.18,29.04-30.172,41.732c-12.594,14.548-26.131,27.613-39.748,39.475
			c-16.672,14.517-33.416,27.252-48.611,38.818c-14.4,10.961-27.332,20.857-37.498,30.196c-0.881,0.808-1.811,1.628-2.649,2.43
			c-18.403,17.602-22.883,30.649-20.741,40.239c1.628,7.271,7.044,12.552,13.183,16.304c1.107,0.679,0.801,1.304,1.934,1.885
			c0.024,0.073-1.42,0.129-1.42,0.202c0-0.013,0-0.024,0-0.037c0-0.581-0.826-1.291-1.94-1.971
			c-15.82-0.489-30.386-2.754-44.951-6.536c-0.031-0.018,0.293-0.043,0.269-0.061c-15.563-10.649-17.528-24.896-9.186-43.079
			c5.312-11.573,14.92-24.737,27.919-39.578c10.41-11.885,23.103-24.859,37.545-38.936c13-12.668,27.486-26.248,43.141-40.759
			c7.668-7.105,15.594-14.413,23.789-21.971c8.953-8.256,16.982-16.843,24.295-25.625c11.775-14.149,21.562-28.861,29.5-43.855
			c9.02-17.044,15.709-34.413,20.482-51.647c4.369-15.777,7.111-31.42,8.514-46.585C423.289,168.771,423.309,168.483,423.332,168.19
			z M418.797,163.569c-6.277-7.571-12.924-15.276-19.877-23.134c0.863-6.041,1.523-11.989,1.939-17.821
			c2.154,3.837,4.174,7.558,6.023,11.071c4.266,8.115,8.354,16.481,12.252,25.006C419.049,160.307,418.92,161.941,418.797,163.569z"
		/>
	</g>
</g>
	<g>
</g>
	<g>
</g>
	<g>
</g>
	<g>
</g>
	<g>
</g>
	<g>
</g>
	<g>
</g>
	<g>
</g>
	<g>
</g>
	<g>
</g>
	<g>
</g>
	<g>
</g>
	<g>
</g>
	<g>
</g>
	<g>
</g>
</svg>
