<?xml version="1.0" encoding="iso-8859-1"?>
<!-- Generator: Adobe Illustrator 16.0.0, SVG Export Plug-In . SVG Version: 6.00 Build 0)  -->
<!DOCTYPE svg PUBLIC "-//W3C//DTD SVG 1.1//EN" "http://www.w3.org/Graphics/SVG/1.1/DTD/svg11.dtd">
<svg version="1.1" id="Capa_1" xmlns="http://www.w3.org/2000/svg" xmlns:xlink="http://www.w3.org/1999/xlink" x="0px" y="0px"
	 width="546.125px" height="546.125px" viewBox="0 0 546.125 546.125" style="enable-background:new 0 0 546.125 546.125;"
	 xml:space="preserve">
<g>
	<g>
		<polygon points="209.819,419.502 210.271,419.672 209.562,418.645 210.773,414.244 208.417,415.053 		"/>
		<polygon points="200.284,419.893 202.946,420.891 201.569,418.908 		"/>
		<polygon points="218.895,345.156 218.735,345.334 219.757,345.51 219.201,345.051 		"/>
		<polygon points="203.503,412.836 203.705,417.273 202.132,418.479 205.804,418.662 207.94,415.217 206.808,415.604 		"/>
		<polygon points="264.844,388.418 267.059,384.838 271.214,385.045 268.589,381.27 269.801,376.863 265.835,378.223 
			262.524,375.455 262.726,379.893 259.311,382.512 263.473,384.072 		"/>
		<polygon points="244.427,336.068 246.337,322.652 235.804,328.84 225.217,322.389 225.309,322.988 226.765,327.615 
			238.925,332.17 228.932,339.818 229.28,347.213 230.755,347.475 236.08,359.635 241.22,347.635 253.179,345.816 		"/>
		<polygon points="105.448,343.914 106.648,344.531 106.011,343.166 		"/>
		<polygon points="99.72,326.158 97.345,326.312 92.596,319.176 93.643,327.707 88.949,331.27 92.106,334.25 99.481,329.617 		"/>
		<polygon points="169.929,320.125 171.391,310.596 155.13,316.049 162.805,321.992 		"/>
		<polygon points="278.662,449.043 280.535,442.236 274.396,444.336 269.164,439.973 269.495,446.98 264.231,451.008 
			270.633,453.406 272.781,460.23 276.264,454.6 282.751,454.93 		"/>
		<polygon points="166.263,348.473 154.316,363.008 149.108,344.979 130.467,338.467 146.966,328.613 147.26,315.975 
			128.117,299.629 132.315,327.641 131.917,327.971 115.479,341.9 115.98,342.891 114.94,342.701 139.2,353.014 139.341,353.375 
			150.112,380.615 160.785,358.688 184.892,361.006 176.14,349.115 		"/>
		<polygon points="206.08,473.891 203.533,469.447 201.93,474.746 197.022,476.602 201.03,479.949 200.761,485.457 204.641,482.109 
			209.231,483.877 207.854,478.424 210.981,473.725 		"/>
		<polygon points="196.777,316.336 198.148,311.361 193.649,312.896 189.88,309.746 190.118,314.801 186.257,317.756 
			190.963,319.52 192.518,324.451 195.039,320.383 199.751,320.621 		"/>
		<polygon points="92.437,334.562 95.668,337.615 95.736,337.861 98.453,347.592 100.613,342.273 99.977,338.688 		"/>
		<polygon points="352.562,260.693 355.021,243.759 341.698,251.611 328.326,243.496 330.971,260.437 324.275,267.835 
			339.171,269.072 349.63,254.947 352.831,272.517 356.344,274.047 363.541,272.934 		"/>
		<polygon points="320.095,272.45 326.484,273.576 323.699,268.466 		"/>
		<polygon points="392.237,399.482 389.122,400.547 386.57,398.412 386.729,401.846 384.043,403.902 387.317,405.125 
			388.376,408.498 390.096,405.725 393.333,405.885 391.283,402.941 		"/>
		<polygon points="393.578,324.996 389.178,325.143 391.301,321.967 390.769,322.15 387.458,319.379 387.666,323.822 
			384.245,326.441 388.412,328.002 389.777,332.346 391.999,328.766 396.154,328.975 393.529,325.191 		"/>
		<polygon points="443.37,300.289 438.884,301.826 435.108,298.686 435.353,303.736 431.491,306.686 436.191,308.453 
			437.739,313.393 440.268,309.316 444.979,309.555 441.999,305.271 		"/>
		<polygon points="337.108,470.701 334.257,471.688 331.925,469.734 332.072,472.855 329.6,474.752 332.604,475.879 
			333.583,478.963 335.15,476.424 338.112,476.576 336.233,473.871 		"/>
		<polygon points="305.389,242.664 281.9,250.314 282.971,253.221 301.625,260.736 		"/>
		<polygon points="257.188,246.299 262.5,236.728 255.504,230.865 		"/>
		<polygon points="237.64,278.918 245.511,282.09 247.579,272.156 247.077,271.471 		"/>
		<polygon points="328.822,359.379 333.914,360.309 330.138,354.092 331.013,347.199 326.153,348.773 321.949,344.324 
			322.812,350.785 318.822,354.494 324.434,357.658 326.698,364.416 		"/>
		<polygon points="300.554,273.925 289.862,282.352 291.386,296.281 318.467,298.49 		"/>
		<polygon points="267.102,294.348 276.814,320.773 284.14,307.578 267.996,294.053 		"/>
		<polygon points="91.69,267.688 95.209,265.057 98.251,268.117 98.202,261.893 101.739,257.132 97.627,255.883 96.611,250.84 
			94.646,255.73 90.295,256.514 92.908,261.654 		"/>
		<polygon points="339.281,120.919 340.377,119.156 337.983,117.167 338.149,120.594 337.818,120.845 		"/>
		<polygon points="111.954,203.533 114.573,201.574 116.85,203.869 116.813,199.169 119.579,195.454 116.36,194.481 115.632,190.84 
			114.218,194.371 110.81,194.977 112.866,199.004 		"/>
		<polygon points="379.894,144.089 378.437,147.7 382.402,146.653 385.641,149.163 385.732,145.27 389.116,143.257 385.285,141.917 
			384.178,138.079 381.638,141.17 377.586,140.907 		"/>
		<polygon points="95.203,364.605 96.58,371.465 98.93,365.266 		"/>
		<polygon points="363.719,195.369 374.122,209.695 367.635,225.699 377.066,223.227 379.526,207.174 371.19,195.852 		"/>
		<polygon points="394.594,228.361 399.539,232.193 399.624,228.521 398.07,227.199 		"/>
		<polygon points="198.699,267.989 205.89,251.305 213.246,268.147 219.617,269.274 215.266,261.263 221.312,245.883 
			207.064,250.259 196.312,239.598 195.057,256.128 182.175,264.996 191.593,269.09 		"/>
		<polygon points="192.272,189.402 194.482,185.821 198.644,186.029 196.012,182.248 197.224,177.841 193.264,179.2 
			189.947,176.439 190.155,180.882 186.74,183.496 190.896,185.05 		"/>
		<polygon points="114.224,392.684 126.177,387.328 126.177,387.133 121.917,386.9 116.88,377.084 115.509,388.002 108.208,391.318 
			115.13,399.568 115.142,399.875 115.76,411.875 121.122,405.076 128.257,409.605 125.467,398.73 		"/>
		<polygon points="210.32,108.875 211.691,113.22 213.907,109.64 218.068,109.848 215.437,106.065 216.648,101.659 212.683,103.018 
			209.372,100.258 209.574,104.695 206.153,107.314 		"/>
		<polygon points="146.654,231.648 150.528,228.307 155.124,230.069 153.747,224.61 154.243,223.863 151.734,224.726 
			153.019,220.051 151.973,220.087 149.427,215.638 147.823,220.938 142.915,222.792 146.93,226.14 		"/>
		<polygon points="343.65,118.232 343.008,118.453 343.32,119.438 		"/>
		<polygon points="151.195,414.832 153.674,415.756 154.463,418.26 155.73,416.209 158.154,416.324 156.618,414.121 
			157.333,411.516 154.99,412.316 153.111,410.75 153.233,413.271 		"/>
		<polygon points="235.217,170.087 237.371,176.911 240.847,171.28 247.34,171.604 243.246,165.717 245.119,158.918 
			238.986,161.011 233.748,156.653 234.078,163.655 228.815,167.688 		"/>
		<polygon points="263.76,57.834 265.309,62.779 267.83,58.709 272.549,58.941 269.574,54.658 270.939,49.676 266.453,51.212 
			262.683,48.066 262.916,53.122 259.06,56.078 		"/>
		<polygon points="318.283,65.692 321.295,65.361 323.491,67.406 323.449,64.811 325.817,63.703 323.008,62.259 322.084,59.223 
			320.334,61.243 317.721,60.649 319.3,63.018 		"/>
		<polygon points="323.394,220.871 325.535,227.682 331.625,217.841 342.898,218.404 335.799,208.184 339.03,196.434 
			329.446,199.72 321.441,208.576 		"/>
		<polygon points="272.328,140.093 273.693,144.444 275.915,140.864 280.07,141.078 277.444,137.29 278.656,132.896 274.69,134.248 
			271.38,131.482 271.588,135.925 268.167,138.544 		"/>
		<polygon points="276.569,211.703 279.091,207.633 283.81,207.866 280.835,203.582 282.2,198.6 277.714,200.136 273.944,196.99 
			274.183,202.045 270.327,205.001 275.021,206.758 		"/>
		<polygon points="324.813,197.058 319.244,192.413 319.416,196.091 		"/>
		<path d="M273.057,0c-70.778,0-123.96,81.102-149.358,129.444c-36.083,68.673-60.325,154.402-60.325,213.332
			c0,114.027,92.106,203.35,209.689,203.35c117.584,0,209.689-89.322,209.689-203.35c0-58.93-24.241-144.665-60.324-213.332
			C397.018,81.102,343.834,0,273.057,0z M391.589,126.935l2.038-3.292l1.254,3.978l3.617,1.353l-2.974,2.277l0.195,4.125
			l-3.084-2.577l-3.495,1.199l1.059-3.862l-2.355-3.39L391.589,126.935z M384.979,134.217l1.812,6.273l6.64,2.319l-5.881,3.507
			l-0.147,6.518l-5.403-4.186l-6.646,1.738l2.46-6.059l-4.015-5.52l7.014,0.465L384.979,134.217z M374.722,76.873l-2.288-1.181
			l-0.852-2.809C372.642,74.211,373.688,75.533,374.722,76.873z M368.296,72.351l1.487-1.714c0.392,0.484,0.777,0.973,1.169,1.457
			l-1.989,2.289l-3.524-0.802l2.129,3.188l-1.31,3.439l3.874-0.422l2.926,2.724l-0.049-3.482l2.479-1.157
			c0.379,0.496,0.759,0.998,1.138,1.493l-1.762,0.82l0.098,6.609l-5.459-5.098l-6.01,0.661l2.025-5.368l-4.149-6.23L368.296,72.351z
			 M357.592,223.863l5.833,2.185l-4.792,3.666l0.318,6.665l-4.982-4.156l-5.643,1.934l1.714-6.243l-3.794-5.465l6.04,0.3
			l3.293-5.312L357.592,223.863z M337.249,58.715l5.734,2.209l5.092-4.394l-0.354,7.191l4.865,4.064l-5.955,2.246l-2.08,6.91
			l-3.336-5.814l-6.145,0.208l3.898-5.838L337.249,58.715z M333.798,120.644l1.188,0.061l1.285-0.985l-0.318-6.64l4.969,4.149
			l0.809-0.275l0.532-0.857l0.189,0.612l3.893-1.328l-1.658,5.973l0.752,1.083l3.948,1.481l-1.91,1.463l0.899,1.291l-2.423-0.122
			l-0.918,0.704l0.281,6.046l-4.517-3.77l-0.33,0.11l-1.236,2.001l-0.447-1.42l-3.108,1.065l1.555-5.661l-0.307-0.44l-5.232-1.958
			l2.527-1.934L333.798,120.644z M319.66,59.211l3.207-3.697l1.665,5.465l5.44,2.809l-4.676,2.179l0.092,5.734l-4.73-4.425
			l-5.153,0.569l1.732-4.602l-3.599-5.417L319.66,59.211z M305.945,195.62l5.771-13.482l5.832,13.292l-0.336-7.105l11.242,9.388
			l0.789,0.141l12.479-4.284l-3.929,14.272l8.752,12.589l-13.923-0.698l-7.639,12.326l-3.047-9.682l-9.945-6.065l-11.701,6.879
			l2.117-14.884l-9.596-10.691L305.945,195.62z M269.348,127.394l5.728,4.786l6.273-2.161l-1.91,6.922l4.278,6.15l-6.812-0.342
			l-3.758,6.065l-2.301-7.313l-6.432-2.405l5.294-4.051L269.348,127.394z M272.304,201.176l-0.392-8.274l6.188,5.165l6.793-2.326
			l-2.062,7.497l4.614,6.646l-7.355-0.367l-4.064,6.555l-2.478-7.907l-6.971-2.607L272.304,201.176z M286.307,170.668l-4.517-3.77
			l-5.123,1.756l1.555-5.661l-3.451-4.963l5.483,0.275l2.986-4.822l1.842,5.833l5.294,1.982l-4.351,3.33L286.307,170.668z
			 M285.456,92.797l-6.2,4.743l0.404,8.611l-6.438-5.374l-7.289,2.503l2.221-8.066l-4.908-7.069l7.809,0.392l4.253-6.873
			l2.613,8.305L285.456,92.797z M260.651,43.978l6.188,5.166l6.793-2.326l-2.062,7.497l4.627,6.646l-7.369-0.367l-4.063,6.554
			l-2.479-7.907l-6.965-2.607l5.722-4.388L260.651,43.978z M231.716,152.571l7.65,6.371l8.439-2.901l-2.564,9.321l5.734,8.256
			l-9.131-0.453l-5.019,8.115l-3.084-9.792l-8.666-3.256l7.13-5.459L231.716,152.571z M230.541,189.414l-4.572,4.235l1.175,8.819
			l-5.759-6.102l-5.679,1.842l1.016-8.005l-4.67-7.687l6.377,1.163l2.784-6.591l2.926,8.721L230.541,189.414z M212.175,66.714
			l2.338-3.776l1.438,4.56l4.144,1.554l-3.409,2.607l0.22,4.731l-3.538-2.956l-4.002,1.377l1.218-4.431l-2.699-3.886L212.175,66.714
			z M207.34,96.169l5.729,4.78l6.273-2.148l-1.909,6.916l4.266,6.15l-6.799-0.343l-3.758,6.065l-2.301-7.307l-6.426-2.411
			l5.281-4.052L207.34,96.169z M188.276,180.007l-0.367-7.656l5.734,4.78l6.267-2.148l-1.909,6.916l4.278,6.151l-6.812-0.343
			l-3.751,6.065l-2.307-7.313l-6.432-2.405L188.276,180.007z M193.289,255.112l1.493-19.614l12.797,12.681l16.842-5.171
			l-7.136,18.133l4.639,8.531l7.589,1.334l-4.284,4.736l0.894,1.635l-2.204-0.184l-6.095,6.738l2.882,18.457l-14.59-8.861
			l-14.499,8.543l2.674-18.402l-11.824-13.183l5.753-0.887l-9.792-4.26L193.289,255.112z M157.224,137.412l2.484-4.015l1.524,4.853
			l4.413,1.652l-3.623,2.772l0.239,5.037l-3.764-3.14l-4.266,1.462l1.297-4.712l-2.871-4.131L157.224,137.412z M146.33,219.542
			l2.571-8.519l1.787,3.122l4.633,0.232l2.986-4.829l1.836,5.832l5.294,1.983l-4.352,3.335l0.282,6.046l-4.394-3.666l-1.249,1.873
			l2.05,8.103l-6.873-2.65l-6.304,5.44l0.453-8.88l-5.734-4.78L146.33,219.542z M108.276,193.563l4.614-0.82l3.341-8.292l1.72,8.599
			l4.664,1.401l-3.959,5.312l0.073,8.586l-4.333-4.352l-5.189,3.88l1.738-8.611l-2.772-5.429
			C108.208,193.747,108.239,193.655,108.276,193.563z M107.052,233.821l3.292-5.318l2.02,6.426l5.833,2.185l-4.792,3.672
			l0.318,6.665l-4.982-4.155l-5.637,1.934l1.714-6.242l-3.801-5.465L107.052,233.821z M88.545,254.959l4.773-0.851l3.88-9.645
			l2.007,9.994l5.569,1.677l-4.73,6.358l0.085,10.123l-5.092-5.128l-6.089,4.553l2.044-10.123l-2.821-5.539
			C88.288,255.908,88.422,255.43,88.545,254.959z M78.404,305.59l0.306,0.184l-0.214-0.844c0.379-2.713,0.759-5.436,1.206-8.201
			l2.381,0.121l-2.362,5.393l1.86,7.393l-3.464-2.08C78.196,306.912,78.312,306.238,78.404,305.59z M80.858,400.156
			c-3.635-11.672-6.187-23.869-7.564-36.494c-0.251-2.283-0.422-4.59-0.594-6.902l1.67-19.641l0.166,0.338l-1.738,19.297
			c0.171,2.312,0.3,4.619,0.545,6.902l1.346-0.207l-0.998,0.207c1.371,12.564,3.715,24.701,7.32,36.316L80.858,400.156z
			 M99.53,397.641l-1.181-2.344l3.929,13.115l-16.199-11.609l-2.02,2.404c-0.146-0.482-0.281-0.979-0.422-1.469l0.704-0.66
			c-0.08-0.27-0.128-0.545-0.202-0.814l1.634-1.945l13.213,9.473l-5.037-16.811l-5.386-0.307l1.273-9.891L85.564,364.6l6.169,4.541
			l1.964-4.799l-8.758-1.561l-7.613-15.479c-0.024-1.156-0.11-2.275-0.11-3.426l0,0c0-0.367-0.82-0.729-0.82-1.096
			c0-0.637-0.123-1.297-0.214-1.959l9.988,20.307l8.225,1.469l0.269-0.66l0.147,0.734l6.61,1.18l-4.131,10.895l6.004,7.613
			l-4.602,3.311L99.53,397.641z M163.233,407.936l-1.457-5.057l-5.233-1.822l4.633-2.768l0.123-5.207l4.321,3.348l5.312-1.391
			l-1.964,4.836l3.158,4.352l-5.532-0.361L163.233,407.936z M179.182,470.713l-3.005,3.459l-1.561-5.148l-4.994-2.57l4.259-1.988
			l-0.073-5.049l4.192,3.916l4.945-0.543l-1.671,4.406l3.133,4.705L179.182,470.713z M161.875,360.639l-11.94,24.535l-0.643-1.627
			l-4.21,11.125l8.433,12.676l-2.222-0.508l4.076,3.408l4.651-1.592l-1.407,5.117l3.176,4.57l-5.062-0.25l-2.809,4.535l-1.72-5.465
			l-4.749-1.775l3.917-2.992l-0.27-5.605l-11.634-2.656l-8.085,9.314l-1.487-4.891l1.303,5.074l-9.645-6.115l-7.356,9.328
			l-0.857-16.574l-8.079-9.619l8.562-3.893l2.056-16.262l6.757,14.633l2.527,0.16l-0.171-11.543l11.285,10.539l12.76-1.408
			l-11.249-28.471l-26.567-11.291l1.053-0.893l-4.884-0.881l-0.123,0.158l3.317,7.105l-6.255-3.201l-2.558,3.402l-0.557-3.139
			l-3.084,7.602l-4.088-14.67l-7.925-7.484l5.575-4.23l-1.86-15.164l8.458,12.691l1.554-0.098l0.336-4.859l4.07,4.572l1.01-0.066
			l-0.11,1.076l1.444,1.621l8.403-1.908l-3.525,9.154l3.164,6.305l15.704-13.311l-4.768-31.861l21.744,18.574l0.08-3.557
			l5.992,4.646l20.27-6.807l-1.799,11.727l9.847-2.582l-6.983,17.221l11.254,15.502l-7.454-0.49l10.282,13.955L161.875,360.639z
			 M189.482,320.926l-6.964-2.613l5.728-4.387l-0.392-8.275l6.188,5.172l6.799-2.338l-2.062,7.504l4.614,6.652l-7.356-0.373
			l-4.064,6.555L189.482,320.926z M211.887,486.871l-6.873-2.656l-6.31,5.439l0.453-8.879l-5.734-4.779l7.013-2.645l2.571-8.52
			l4.112,7.186l7.381-0.238l-4.664,6.988L211.887,486.871z M210.614,424.189l0.227,4.773l-3.176-2.656l-2.393,3.867l-1.065-3.371
			l-1.395,0.477l0.722-2.619l-0.563-1.799l-6.426-2.412l5.282-4.051l-0.361-7.656l5.722,4.785l6.273-2.16l-1.909,6.922l1.744,2.504
			l0.924,0.348l-0.446,0.344l2.056,2.955L210.614,424.189z M227.817,483.859l-2.484,2.857l-1.292-4.252l-4.125-2.125l3.513-1.646
			l-0.062-4.174l3.464,3.238l4.082-0.453l-1.377,3.641l2.589,3.893L227.817,483.859z M236.104,364.25l-6.64-15.141l-0.098-0.02
			l0.22,4.615l-6.989-5.826l-7.448-1.334l0.146-0.166l-7.858,2.693l3.574-13.012l-7.919-11.4l12.595,0.631l6.866-11.084l1.714,5.441
			l11.555,7.043l12.876-7.564l-2.326,16.348l10.447,11.633l-14.302,2.174L236.104,364.25z M260.854,379.018l-0.361-7.65l5.729,4.779
			l6.267-2.16l-1.909,6.928l4.277,6.145l-6.811-0.342l-3.751,6.064l-2.308-7.307l-6.419-2.412L260.854,379.018z M277.451,414.643
			l-4.523-3.777l-5.116,1.758l1.554-5.662l-3.452-4.963l5.483,0.275l2.987-4.822l1.836,5.832l5.294,1.982l-4.357,3.336
			L277.451,414.643z M274.574,342.469l0.318,6.664l-4.981-4.154l-5.637,1.934l1.713-6.242l-3.8-5.465l6.034,0.299l3.292-5.312
			l2.02,6.42l5.832,2.186L274.574,342.469z M272.23,464.605l-3.078-9.791l-8.678-3.244l7.142-5.465l-0.484-10.221l7.644,6.383
			l8.445-2.906l-2.563,9.326l5.728,8.256l-9.125-0.459L272.23,464.605z M286.147,498.059l-4.981-4.156l-5.643,1.934l1.713-6.242
			l-3.8-5.465l6.041,0.299l3.293-5.318l2.02,6.428l5.832,2.184l-4.792,3.672L286.147,498.059z M285.572,308.779l-9.095,16.395
			l-11.126-30.258l-24.149,7.865l3.929-18.869l-11.114-4.473L246,269.99l-18.58-25.471l27.975,2.283l-2.209-20.27l10.22,8.562
			l7.76-13.979l10.104,27.479l26.561-8.654l-4.479,21.494l8.636,3.476l-9.994,7.876l20.318,27.852l-30.729-2.51l1.885,17.252
			L285.572,308.779z M315.076,389.471l-6.438-5.367l-7.289,2.502l2.215-8.064l-4.908-7.07l7.81,0.393l4.253-6.873l2.613,8.305
			l7.54,2.822l-6.199,4.742L315.076,389.471z M315.726,354.85l5.141-4.768l-1.481-11.162l7.308,7.754l6.506-2.111l-1.157,9.125
			l5.569,9.154l-7.662-1.395l-3.439,8.139l-3.593-10.672L315.726,354.85z M336.142,478.314l-3.109,5.006l-1.909-6.033l-5.275-1.971
			l4.346-3.33l-0.301-6.34l4.743,3.965l5.159-1.781l-1.566,5.699l3.525,5.066L336.142,478.314z M339.171,439.826l0.288,6.047
			l-4.517-3.77l-5.123,1.756l1.555-5.662l-3.451-4.963l5.483,0.275l2.986-4.822l1.836,5.832l5.294,1.982L339.171,439.826z
			 M358.877,369.691l-4.522-3.771l-5.116,1.758l1.555-5.662l-3.452-4.963l5.484,0.275l2.986-4.822l1.836,5.832l5.294,1.982
			l-4.346,3.318L358.877,369.691z M353.645,288.459l-1.377,18.074l-11.774-11.672l-15.545,4.773l6.598-16.756l-3.936-7.24
			l-11.102-1.953l12.516-13.837l-3.122-19.976l15.809,9.596l15.68-9.241l-2.889,19.872l12.674,14.125l-7.687,1.188l8.029,3.494
			L353.645,288.459z M391.087,407.609l-3.262,5.258l-1.989-6.334l-5.545-2.074l4.565-3.488l-0.317-6.646l4.969,4.154l5.423-1.865
			l-1.646,5.979l3.69,5.312L391.087,407.609z M400.738,323.846l-1.787,5.924l0.851,1.225l-6.812-0.344l-3.758,6.066l-2.301-7.309
			l-6.426-2.41l5.281-4.053l-0.361-7.656l5.729,4.787l1.823-0.631l0.099-0.146l-1.72-6.787l5.74,2.203l5.092-4.389l-0.361,7.197
			l4.866,4.064L400.738,323.846z M434.258,350.523l-2.375,5.912l-1.23-6.115l-3.935-1.193l3.366-4.516l-0.056-6.646l3.305,3.322
			l3.905-2.912l-1.328,6.566l2.473,4.848L434.258,350.523z M441.259,311.201l-4.07,6.561l-2.479-7.912l-6.964-2.607l5.728-4.389
			l-0.392-8.268l6.188,5.166l6.793-2.338L444,304.916l4.627,6.652L441.259,311.201z M452.69,277.811l4.805-3.586l-1.628,8.078
			l3.035,5.955l-5.067,0.906l-2.925,7.27l-1.512-7.521l-4.841-1.463l4.137-5.557l-0.067-8.169L452.69,277.811z M439.38,197.608
			c0.196,0.514,0.397,1.028,0.588,1.548l-0.766-1.634L439.38,197.608z M423.584,159.604l0.189,12.876l-12.546-11.726l-13.048,1.444
			l11.139,28.17l23.807,10.123l6.897,1.242l0.605-0.808c0.251,0.685,0.496,1.377,0.747,2.068l-0.563,0.747l-7.344-1.322l3.862,7.705
			l-3.048,7.925l7.252-1.652l2.074,2.332l0.753-7.295c0.863,2.491,1.714,4.982,2.54,7.479l-2.956,0.19l2.919,3.286l0.202-2.962
			c0.515,1.555,1.022,3.115,1.518,4.669l-0.189,2.779l-7.503-8.434l-9.56,2.167l3.99-10.374l-3.299-6.585l-15.551,13.176
			l4.479,29.939l-19.547-16.695l-0.135,5.82l-8.782-6.812l-17.216,5.777l1.476-9.633l-12.197,3.194l7.479-18.452l-12.111-16.677
			l9.835,0.649l-8.807-11.958l25.521,2.454l10.765-22.111l-0.386,0.042l4.841-12.821l-9.443-14.192l15.766,3.599l3.458-3.984
			c0.03,0.061,0.067,0.128,0.098,0.189c0.275,0.521,0.532,1.059,0.802,1.579l-3.69,4.247l-12.362-2.821l7.424,11.157l-4.125,10.894
			l12.233-1.353l10.013,9.345l-0.153-10.374l-4.492-0.282l2.461-6.187c0.752,1.566,1.486,3.14,2.228,4.718
			c0.281,0.606,0.575,1.206,0.856,1.812C423.039,158.459,423.321,159.028,423.584,159.604z"/>
	</g>
</g>
<g>
</g>
<g>
</g>
<g>
</g>
<g>
</g>
<g>
</g>
<g>
</g>
<g>
</g>
<g>
</g>
<g>
</g>
<g>
</g>
<g>
</g>
<g>
</g>
<g>
</g>
<g>
</g>
<g>
</g>
</svg>
